<?xml version="1.0"?>
<svg xmlns="http://www.w3.org/2000/svg" width="814" height="213" viewBox="0 0 814 213" fill="none"><path fill-rule="evenodd" clip-rule="evenodd" d="M101.533 1.39191C99.9368 2.22391 92.7368 8.41192 85.5328 15.1429C69.2278 30.3759 59.9198 38.7439 28.6418 66.2849C11.6768 81.2229 3.21084 89.3649 1.82984 92.0719C-0.125156 95.9039 -0.177152 97.4999 0.155848 143.197C0.477848 187.317 0.627845 190.683 2.46784 195.267C4.79684 201.07 10.8568 207.631 16.4348 210.389C20.3138 212.306 22.7408 212.366 96.9348 212.366H173.435L178.293 209.974C184.771 206.786 189.637 201.742 192.788 194.952L195.38 189.366L195.435 100.93L193.18 98.6709C190.37 95.8549 184.004 95.5879 181.156 98.1659C179.309 99.8379 179.193 101.984 178.725 143.341C178.182 191.299 178.373 189.935 171.676 193.595C168.659 195.243 163.432 195.366 96.2038 195.366H23.9728L17.9128 189.305L17.7479 98.3659L38.5909 80.0389C67.6849 54.4579 84.8108 38.9659 96.2068 27.9199L105.979 18.4489L115.707 27.9069C121.057 33.1099 128.899 40.8539 133.132 45.1159C139.89 51.9209 141.267 52.8659 144.427 52.8659C149.266 52.8659 152.935 49.2419 152.935 44.4619C152.935 41.2629 151.596 39.6659 137.185 25.6659C128.523 17.2509 119.597 8.47091 117.349 6.1539C111.309 -0.0740952 106.893 -1.40309 101.533 1.39191ZM274.047 57.9139C270.353 58.4119 264.556 60.2489 260.3 62.2699C243.93 70.0439 235.302 84.9949 237.894 101.095C240.397 116.634 254.27 128.175 277.941 134.409C297.829 139.646 304.224 144.356 304.364 153.869C304.453 159.958 302.037 163.511 295.615 166.731C290.239 169.426 279.548 169.995 272.227 167.973C266.542 166.404 259.943 161.192 257.074 156.005C255.559 153.264 254.214 151.929 253.318 152.273C250.251 153.449 232.935 164.031 232.935 164.729C232.935 165.139 234.257 167.559 235.873 170.107C239.971 176.57 248.979 183.323 258.435 187.022C265.488 189.781 267.943 190.209 279.176 190.641C293.29 191.184 297.708 190.399 307.269 185.65C319.157 179.746 325.932 170.75 328.126 157.958C329.202 151.684 329.141 149.88 327.665 144.251C323.574 128.656 311.038 118.452 288.515 112.383C268.045 106.868 263.114 103.737 262.232 95.6919C261.258 86.7959 269.86 79.8579 281.842 79.8759C292.948 79.8919 301.844 85.4419 305.071 94.3659C305.767 96.2909 306.668 97.8659 307.073 97.8659C308.873 97.8659 326.935 86.2389 326.935 85.0799C326.935 80.2319 316.753 68.7369 307.935 63.6299C299.167 58.5509 285.905 56.3149 274.047 57.9139ZM346.821 58.8649C340.715 62.0909 338.169 70.5499 341.415 76.8269C344.05 81.9229 347.548 83.8659 354.085 83.8659C359.347 83.8659 360.344 83.5179 363.578 80.5539C366.592 77.7919 367.264 76.4209 367.625 72.3039C368.658 60.5169 357.425 53.2599 346.821 58.8649ZM640.178 57.6789C639.185 58.3219 638.974 72.2489 639.178 123.93L639.435 189.366H662.435L662.692 124.477C662.866 80.6889 662.612 59.1809 661.911 58.3369C660.72 56.9019 642.241 56.3429 640.178 57.6789ZM687.205 58.3489C682.732 60.2929 679.943 65.2379 679.939 71.2339C679.935 75.5569 680.369 76.5349 683.817 79.9839C687.334 83.5009 688.19 83.8659 692.913 83.8659C701.767 83.8659 707.268 78.6739 707.268 70.3179C707.268 60.4049 696.816 54.1699 687.205 58.3489ZM422.935 97.2529C415.54 98.8929 411.826 101.007 407.535 106.02L403.935 110.226V98.8659H382.935V189.929L406.435 189.366L406.935 158.866C407.378 131.847 407.643 127.985 409.256 125.028C411.817 120.335 418.505 117.5 425.623 118.09C432.048 118.623 435.663 120.977 438.435 126.431C440.262 130.025 440.478 132.924 440.935 159.866L441.435 189.366L464.935 189.929L464.959 162.648C464.972 147.643 465.392 133.601 465.892 131.443C467.003 126.655 469.523 123.118 474.027 120.027C476.84 118.097 478.406 117.757 483 118.078C490.016 118.568 494.439 121.565 497.311 127.774C499.294 132.061 499.455 134.275 499.742 161.147L500.048 189.928L523.435 189.366L523.4 156.366C523.367 124.533 523.286 123.166 521.117 117.719C515.175 102.797 500.024 94.3519 483.864 96.9549C475.915 98.2349 472.801 99.8989 465.735 106.638L459.978 112.13L455.319 106.948C450.041 101.078 445.784 98.6099 438.136 96.9889C431.773 95.6409 430.074 95.6699 422.935 97.2529ZM758.886 96.9169C734.899 100.491 717.99 119.899 717.947 143.906C717.933 151.788 720.073 160.511 723.62 167.029C727.364 173.908 737.596 183.346 745.123 186.862C767.483 197.308 796.883 188.497 807.718 168.103C817.595 149.515 815.451 127.192 802.328 111.978C792.594 100.694 774.843 94.5389 758.886 96.9169ZM341.935 189.929L365.435 189.366V143.866V98.3659L341.935 97.8029V143.866V189.929ZM682.405 99.0829C682.135 99.7889 682.031 120.391 682.174 144.866L682.435 189.366H705.435V98.3659L694.166 98.0829C685.709 97.8709 682.775 98.1199 682.405 99.0829ZM538.935 130.182C538.935 163.677 539.625 170.84 543.493 177.511C549.609 188.058 563.33 193.279 578.548 190.848C586.816 189.527 591.545 187.147 596.251 181.938C598.274 179.699 600.134 177.866 600.382 177.866C600.631 177.866 600.97 180.453 601.135 183.616L601.435 189.366L624.172 189.934L623.48 186.65C623.099 184.844 622.551 164.353 622.263 141.116L621.737 98.8659H598.067L597.751 129.295C597.449 158.341 597.34 159.852 595.343 162.545C594.192 164.096 591.717 166.416 589.843 167.7C586.856 169.746 585.484 169.992 578.746 169.695C571.929 169.395 570.726 169.04 568.139 166.562C563.381 162.003 562.935 158.658 562.935 127.5V98.8659H538.935V130.182ZM774.256 118.938C779.012 120.259 785.408 125.933 788.188 131.298C789.823 134.454 790.311 137.271 790.365 143.866C790.429 151.595 790.153 152.865 787.329 157.866C783.111 165.335 777.029 169.138 768.428 169.686C757.749 170.366 750.237 166.651 745.318 158.257C740.261 149.627 741.152 134.901 747.23 126.68C752.679 119.311 763.959 116.079 774.256 118.938Z" fill="#0D3532"/><path fill-rule="evenodd" clip-rule="evenodd" d="M101.533 1.39191C99.9368 2.22391 92.7368 8.41192 85.5328 15.1429C69.2278 30.3759 59.9198 38.7439 28.6418 66.2849C11.6768 81.2229 3.21084 89.3649 1.82984 92.0719C-0.125156 95.9039 -0.177152 97.4999 0.155848 143.197C0.477848 187.317 0.627845 190.683 2.46784 195.267C4.79684 201.07 10.8568 207.631 16.4348 210.389C20.3138 212.306 22.7408 212.366 96.9348 212.366H173.435L178.293 209.974C184.771 206.786 189.637 201.742 192.788 194.952L195.38 189.366L195.435 100.93L193.18 98.6709C190.37 95.8549 184.004 95.5879 181.156 98.1659C179.309 99.8379 179.193 101.984 178.725 143.341C178.182 191.299 178.373 189.935 171.676 193.595C168.659 195.243 163.432 195.366 96.2038 195.366H23.9728L17.9128 189.305L17.7479 98.3659L38.5909 80.0389C67.6849 54.4579 84.8108 38.9659 96.2068 27.9199L105.979 18.4489L115.707 27.9069C121.057 33.1099 128.899 40.8539 133.132 45.1159C139.89 51.9209 141.267 52.8659 144.427 52.8659C149.266 52.8659 152.935 49.2419 152.935 44.4619C152.935 41.2629 151.596 39.6659 137.185 25.6659C128.523 17.2509 119.597 8.47091 117.349 6.1539C111.309 -0.0740952 106.893 -1.40309 101.533 1.39191ZM274.047 57.9139C270.353 58.4119 264.556 60.2489 260.3 62.2699C243.93 70.0439 235.302 84.9949 237.894 101.095C240.397 116.634 254.27 128.175 277.941 134.409C297.829 139.646 304.224 144.356 304.364 153.869C304.453 159.958 302.037 163.511 295.615 166.731C290.239 169.426 279.548 169.995 272.227 167.973C266.542 166.404 259.943 161.192 257.074 156.005C255.559 153.264 254.214 151.929 253.318 152.273C250.251 153.449 232.935 164.031 232.935 164.729C232.935 165.139 234.257 167.559 235.873 170.107C239.971 176.57 248.979 183.323 258.435 187.022C265.488 189.781 267.943 190.209 279.176 190.641C293.29 191.184 297.708 190.399 307.269 185.65C319.157 179.746 325.932 170.75 328.126 157.958C329.202 151.684 329.141 149.88 327.665 144.251C323.574 128.656 311.038 118.452 288.515 112.383C268.045 106.868 263.114 103.737 262.232 95.6919C261.258 86.7959 269.86 79.8579 281.842 79.8759C292.948 79.8919 301.844 85.4419 305.071 94.3659C305.767 96.2909 306.668 97.8659 307.073 97.8659C308.873 97.8659 326.935 86.2389 326.935 85.0799C326.935 80.2319 316.753 68.7369 307.935 63.6299C299.167 58.5509 285.905 56.3149 274.047 57.9139ZM346.821 58.8649C340.715 62.0909 338.169 70.5499 341.415 76.8269C344.05 81.9229 347.548 83.8659 354.085 83.8659C359.347 83.8659 360.344 83.5179 363.578 80.5539C366.592 77.7919 367.264 76.4209 367.625 72.3039C368.658 60.5169 357.425 53.2599 346.821 58.8649ZM640.178 57.6789C639.185 58.3219 638.974 72.2489 639.178 123.93L639.435 189.366H662.435L662.692 124.477C662.866 80.6889 662.612 59.1809 661.911 58.3369C660.72 56.9019 642.241 56.3429 640.178 57.6789ZM687.205 58.3489C682.732 60.2929 679.943 65.2379 679.939 71.2339C679.935 75.5569 680.369 76.5349 683.817 79.9839C687.334 83.5009 688.19 83.8659 692.913 83.8659C701.767 83.8659 707.268 78.6739 707.268 70.3179C707.268 60.4049 696.816 54.1699 687.205 58.3489ZM422.935 97.2529C415.54 98.8929 411.826 101.007 407.535 106.02L403.935 110.226V98.8659H382.935V189.929L406.435 189.366L406.935 158.866C407.378 131.847 407.643 127.985 409.256 125.028C411.817 120.335 418.505 117.5 425.623 118.09C432.048 118.623 435.663 120.977 438.435 126.431C440.262 130.025 440.478 132.924 440.935 159.866L441.435 189.366L464.935 189.929L464.959 162.648C464.972 147.643 465.392 133.601 465.892 131.443C467.003 126.655 469.523 123.118 474.027 120.027C476.84 118.097 478.406 117.757 483 118.078C490.016 118.568 494.439 121.565 497.311 127.774C499.294 132.061 499.455 134.275 499.742 161.147L500.048 189.928L523.435 189.366L523.4 156.366C523.367 124.533 523.286 123.166 521.117 117.719C515.175 102.797 500.024 94.3519 483.864 96.9549C475.915 98.2349 472.801 99.8989 465.735 106.638L459.978 112.13L455.319 106.948C450.041 101.078 445.784 98.6099 438.136 96.9889C431.773 95.6409 430.074 95.6699 422.935 97.2529ZM758.886 96.9169C734.899 100.491 717.99 119.899 717.947 143.906C717.933 151.788 720.073 160.511 723.62 167.029C727.364 173.908 737.596 183.346 745.123 186.862C767.483 197.308 796.883 188.497 807.718 168.103C817.595 149.515 815.451 127.192 802.328 111.978C792.594 100.694 774.843 94.5389 758.886 96.9169ZM341.935 189.929L365.435 189.366V143.866V98.3659L341.935 97.8029V143.866V189.929ZM682.405 99.0829C682.135 99.7889 682.031 120.391 682.174 144.866L682.435 189.366H705.435V98.3659L694.166 98.0829C685.709 97.8709 682.775 98.1199 682.405 99.0829ZM538.935 130.182C538.935 163.677 539.625 170.84 543.493 177.511C549.609 188.058 563.33 193.279 578.548 190.848C586.816 189.527 591.545 187.147 596.251 181.938C598.274 179.699 600.134 177.866 600.382 177.866C600.631 177.866 600.97 180.453 601.135 183.616L601.435 189.366L624.172 189.934L623.48 186.65C623.099 184.844 622.551 164.353 622.263 141.116L621.737 98.8659H598.067L597.751 129.295C597.449 158.341 597.34 159.852 595.343 162.545C594.192 164.096 591.717 166.416 589.843 167.7C586.856 169.746 585.484 169.992 578.746 169.695C571.929 169.395 570.726 169.04 568.139 166.562C563.381 162.003 562.935 158.658 562.935 127.5V98.8659H538.935V130.182ZM774.256 118.938C779.012 120.259 785.408 125.933 788.188 131.298C789.823 134.454 790.311 137.271 790.365 143.866C790.429 151.595 790.153 152.865 787.329 157.866C783.111 165.335 777.029 169.138 768.428 169.686C757.749 170.366 750.237 166.651 745.318 158.257C740.261 149.627 741.152 134.901 747.23 126.68C752.679 119.311 763.959 116.079 774.256 118.938Z" fill="#0D3532"/><path fill-rule="evenodd" clip-rule="evenodd" d="M101.533 1.39191C99.9368 2.22391 92.7368 8.41192 85.5328 15.1429C69.2278 30.3759 59.9198 38.7439 28.6418 66.2849C11.6768 81.2229 3.21084 89.3649 1.82984 92.0719C-0.125156 95.9039 -0.177152 97.4999 0.155848 143.197C0.477848 187.317 0.627845 190.683 2.46784 195.267C4.79684 201.07 10.8568 207.631 16.4348 210.389C20.3138 212.306 22.7408 212.366 96.9348 212.366H173.435L178.293 209.974C184.771 206.786 189.637 201.742 192.788 194.952L195.38 189.366L195.435 100.93L193.18 98.6709C190.37 95.8549 184.004 95.5879 181.156 98.1659C179.309 99.8379 179.193 101.984 178.725 143.341C178.182 191.299 178.373 189.935 171.676 193.595C168.659 195.243 163.432 195.366 96.2038 195.366H23.9728L17.9128 189.305L17.7479 98.3659L38.5909 80.0389C67.6849 54.4579 84.8108 38.9659 96.2068 27.9199L105.979 18.4489L115.707 27.9069C121.057 33.1099 128.899 40.8539 133.132 45.1159C139.89 51.9209 141.267 52.8659 144.427 52.8659C149.266 52.8659 152.935 49.2419 152.935 44.4619C152.935 41.2629 151.596 39.6659 137.185 25.6659C128.523 17.2509 119.597 8.47091 117.349 6.1539C111.309 -0.0740952 106.893 -1.40309 101.533 1.39191ZM274.047 57.9139C270.353 58.4119 264.556 60.2489 260.3 62.2699C243.93 70.0439 235.302 84.9949 237.894 101.095C240.397 116.634 254.27 128.175 277.941 134.409C297.829 139.646 304.224 144.356 304.364 153.869C304.453 159.958 302.037 163.511 295.615 166.731C290.239 169.426 279.548 169.995 272.227 167.973C266.542 166.404 259.943 161.192 257.074 156.005C255.559 153.264 254.214 151.929 253.318 152.273C250.251 153.449 232.935 164.031 232.935 164.729C232.935 165.139 234.257 167.559 235.873 170.107C239.971 176.57 248.979 183.323 258.435 187.022C265.488 189.781 267.943 190.209 279.176 190.641C293.29 191.184 297.708 190.399 307.269 185.65C319.157 179.746 325.932 170.75 328.126 157.958C329.202 151.684 329.141 149.88 327.665 144.251C323.574 128.656 311.038 118.452 288.515 112.383C268.045 106.868 263.114 103.737 262.232 95.6919C261.258 86.7959 269.86 79.8579 281.842 79.8759C292.948 79.8919 301.844 85.4419 305.071 94.3659C305.767 96.2909 306.668 97.8659 307.073 97.8659C308.873 97.8659 326.935 86.2389 326.935 85.0799C326.935 80.2319 316.753 68.7369 307.935 63.6299C299.167 58.5509 285.905 56.3149 274.047 57.9139ZM346.821 58.8649C340.715 62.0909 338.169 70.5499 341.415 76.8269C344.05 81.9229 347.548 83.8659 354.085 83.8659C359.347 83.8659 360.344 83.5179 363.578 80.5539C366.592 77.7919 367.264 76.4209 367.625 72.3039C368.658 60.5169 357.425 53.2599 346.821 58.8649ZM640.178 57.6789C639.185 58.3219 638.974 72.2489 639.178 123.93L639.435 189.366H662.435L662.692 124.477C662.866 80.6889 662.612 59.1809 661.911 58.3369C660.72 56.9019 642.241 56.3429 640.178 57.6789ZM687.205 58.3489C682.732 60.2929 679.943 65.2379 679.939 71.2339C679.935 75.5569 680.369 76.5349 683.817 79.9839C687.334 83.5009 688.19 83.8659 692.913 83.8659C701.767 83.8659 707.268 78.6739 707.268 70.3179C707.268 60.4049 696.816 54.1699 687.205 58.3489ZM422.935 97.2529C415.54 98.8929 411.826 101.007 407.535 106.02L403.935 110.226V98.8659H382.935V189.929L406.435 189.366L406.935 158.866C407.378 131.847 407.643 127.985 409.256 125.028C411.817 120.335 418.505 117.5 425.623 118.09C432.048 118.623 435.663 120.977 438.435 126.431C440.262 130.025 440.478 132.924 440.935 159.866L441.435 189.366L464.935 189.929L464.959 162.648C464.972 147.643 465.392 133.601 465.892 131.443C467.003 126.655 469.523 123.118 474.027 120.027C476.84 118.097 478.406 117.757 483 118.078C490.016 118.568 494.439 121.565 497.311 127.774C499.294 132.061 499.455 134.275 499.742 161.147L500.048 189.928L523.435 189.366L523.4 156.366C523.367 124.533 523.286 123.166 521.117 117.719C515.175 102.797 500.024 94.3519 483.864 96.9549C475.915 98.2349 472.801 99.8989 465.735 106.638L459.978 112.13L455.319 106.948C450.041 101.078 445.784 98.6099 438.136 96.9889C431.773 95.6409 430.074 95.6699 422.935 97.2529ZM758.886 96.9169C734.899 100.491 717.99 119.899 717.947 143.906C717.933 151.788 720.073 160.511 723.62 167.029C727.364 173.908 737.596 183.346 745.123 186.862C767.483 197.308 796.883 188.497 807.718 168.103C817.595 149.515 815.451 127.192 802.328 111.978C792.594 100.694 774.843 94.5389 758.886 96.9169ZM341.935 189.929L365.435 189.366V143.866V98.3659L341.935 97.8029V143.866V189.929ZM682.405 99.0829C682.135 99.7889 682.031 120.391 682.174 144.866L682.435 189.366H705.435V98.3659L694.166 98.0829C685.709 97.8709 682.775 98.1199 682.405 99.0829ZM538.935 130.182C538.935 163.677 539.625 170.84 543.493 177.511C549.609 188.058 563.33 193.279 578.548 190.848C586.816 189.527 591.545 187.147 596.251 181.938C598.274 179.699 600.134 177.866 600.382 177.866C600.631 177.866 600.97 180.453 601.135 183.616L601.435 189.366L624.172 189.934L623.48 186.65C623.099 184.844 622.551 164.353 622.263 141.116L621.737 98.8659H598.067L597.751 129.295C597.449 158.341 597.34 159.852 595.343 162.545C594.192 164.096 591.717 166.416 589.843 167.7C586.856 169.746 585.484 169.992 578.746 169.695C571.929 169.395 570.726 169.04 568.139 166.562C563.381 162.003 562.935 158.658 562.935 127.5V98.8659H538.935V130.182ZM774.256 118.938C779.012 120.259 785.408 125.933 788.188 131.298C789.823 134.454 790.311 137.271 790.365 143.866C790.429 151.595 790.153 152.865 787.329 157.866C783.111 165.335 777.029 169.138 768.428 169.686C757.749 170.366 750.237 166.651 745.318 158.257C740.261 149.627 741.152 134.901 747.23 126.68C752.679 119.311 763.959 116.079 774.256 118.938Z" fill="#0D3532"/><path fill-rule="evenodd" clip-rule="evenodd" d="M101.533 1.39191C99.9368 2.22391 92.7368 8.41192 85.5328 15.1429C69.2278 30.3759 59.9198 38.7439 28.6418 66.2849C11.6768 81.2229 3.21084 89.3649 1.82984 92.0719C-0.125156 95.9039 -0.177152 97.4999 0.155848 143.197C0.477848 187.317 0.627845 190.683 2.46784 195.267C4.79684 201.07 10.8568 207.631 16.4348 210.389C20.3138 212.306 22.7408 212.366 96.9348 212.366H173.435L178.293 209.974C184.771 206.786 189.637 201.742 192.788 194.952L195.38 189.366L195.435 100.93L193.18 98.6709C190.37 95.8549 184.004 95.5879 181.156 98.1659C179.309 99.8379 179.193 101.984 178.725 143.341C178.182 191.299 178.373 189.935 171.676 193.595C168.659 195.243 163.432 195.366 96.2038 195.366H23.9728L17.9128 189.305L17.7479 98.3659L38.5909 80.0389C67.6849 54.4579 84.8108 38.9659 96.2068 27.9199L105.979 18.4489L115.707 27.9069C121.057 33.1099 128.899 40.8539 133.132 45.1159C139.89 51.9209 141.267 52.8659 144.427 52.8659C149.266 52.8659 152.935 49.2419 152.935 44.4619C152.935 41.2629 151.596 39.6659 137.185 25.6659C128.523 17.2509 119.597 8.47091 117.349 6.1539C111.309 -0.0740952 106.893 -1.40309 101.533 1.39191ZM274.047 57.9139C270.353 58.4119 264.556 60.2489 260.3 62.2699C243.93 70.0439 235.302 84.9949 237.894 101.095C240.397 116.634 254.27 128.175 277.941 134.409C297.829 139.646 304.224 144.356 304.364 153.869C304.453 159.958 302.037 163.511 295.615 166.731C290.239 169.426 279.548 169.995 272.227 167.973C266.542 166.404 259.943 161.192 257.074 156.005C255.559 153.264 254.214 151.929 253.318 152.273C250.251 153.449 232.935 164.031 232.935 164.729C232.935 165.139 234.257 167.559 235.873 170.107C239.971 176.57 248.979 183.323 258.435 187.022C265.488 189.781 267.943 190.209 279.176 190.641C293.29 191.184 297.708 190.399 307.269 185.65C319.157 179.746 325.932 170.75 328.126 157.958C329.202 151.684 329.141 149.88 327.665 144.251C323.574 128.656 311.038 118.452 288.515 112.383C268.045 106.868 263.114 103.737 262.232 95.6919C261.258 86.7959 269.86 79.8579 281.842 79.8759C292.948 79.8919 301.844 85.4419 305.071 94.3659C305.767 96.2909 306.668 97.8659 307.073 97.8659C308.873 97.8659 326.935 86.2389 326.935 85.0799C326.935 80.2319 316.753 68.7369 307.935 63.6299C299.167 58.5509 285.905 56.3149 274.047 57.9139ZM346.821 58.8649C340.715 62.0909 338.169 70.5499 341.415 76.8269C344.05 81.9229 347.548 83.8659 354.085 83.8659C359.347 83.8659 360.344 83.5179 363.578 80.5539C366.592 77.7919 367.264 76.4209 367.625 72.3039C368.658 60.5169 357.425 53.2599 346.821 58.8649ZM640.178 57.6789C639.185 58.3219 638.974 72.2489 639.178 123.93L639.435 189.366H662.435L662.692 124.477C662.866 80.6889 662.612 59.1809 661.911 58.3369C660.72 56.9019 642.241 56.3429 640.178 57.6789ZM687.205 58.3489C682.732 60.2929 679.943 65.2379 679.939 71.2339C679.935 75.5569 680.369 76.5349 683.817 79.9839C687.334 83.5009 688.19 83.8659 692.913 83.8659C701.767 83.8659 707.268 78.6739 707.268 70.3179C707.268 60.4049 696.816 54.1699 687.205 58.3489ZM422.935 97.2529C415.54 98.8929 411.826 101.007 407.535 106.02L403.935 110.226V98.8659H382.935V189.929L406.435 189.366L406.935 158.866C407.378 131.847 407.643 127.985 409.256 125.028C411.817 120.335 418.505 117.5 425.623 118.09C432.048 118.623 435.663 120.977 438.435 126.431C440.262 130.025 440.478 132.924 440.935 159.866L441.435 189.366L464.935 189.929L464.959 162.648C464.972 147.643 465.392 133.601 465.892 131.443C467.003 126.655 469.523 123.118 474.027 120.027C476.84 118.097 478.406 117.757 483 118.078C490.016 118.568 494.439 121.565 497.311 127.774C499.294 132.061 499.455 134.275 499.742 161.147L500.048 189.928L523.435 189.366L523.4 156.366C523.367 124.533 523.286 123.166 521.117 117.719C515.175 102.797 500.024 94.3519 483.864 96.9549C475.915 98.2349 472.801 99.8989 465.735 106.638L459.978 112.13L455.319 106.948C450.041 101.078 445.784 98.6099 438.136 96.9889C431.773 95.6409 430.074 95.6699 422.935 97.2529ZM758.886 96.9169C734.899 100.491 717.99 119.899 717.947 143.906C717.933 151.788 720.073 160.511 723.62 167.029C727.364 173.908 737.596 183.346 745.123 186.862C767.483 197.308 796.883 188.497 807.718 168.103C817.595 149.515 815.451 127.192 802.328 111.978C792.594 100.694 774.843 94.5389 758.886 96.9169ZM341.935 189.929L365.435 189.366V143.866V98.3659L341.935 97.8029V143.866V189.929ZM682.405 99.0829C682.135 99.7889 682.031 120.391 682.174 144.866L682.435 189.366H705.435V98.3659L694.166 98.0829C685.709 97.8709 682.775 98.1199 682.405 99.0829ZM538.935 130.182C538.935 163.677 539.625 170.84 543.493 177.511C549.609 188.058 563.33 193.279 578.548 190.848C586.816 189.527 591.545 187.147 596.251 181.938C598.274 179.699 600.134 177.866 600.382 177.866C600.631 177.866 600.97 180.453 601.135 183.616L601.435 189.366L624.172 189.934L623.48 186.65C623.099 184.844 622.551 164.353 622.263 141.116L621.737 98.8659H598.067L597.751 129.295C597.449 158.341 597.34 159.852 595.343 162.545C594.192 164.096 591.717 166.416 589.843 167.7C586.856 169.746 585.484 169.992 578.746 169.695C571.929 169.395 570.726 169.04 568.139 166.562C563.381 162.003 562.935 158.658 562.935 127.5V98.8659H538.935V130.182ZM774.256 118.938C779.012 120.259 785.408 125.933 788.188 131.298C789.823 134.454 790.311 137.271 790.365 143.866C790.429 151.595 790.153 152.865 787.329 157.866C783.111 165.335 777.029 169.138 768.428 169.686C757.749 170.366 750.237 166.651 745.318 158.257C740.261 149.627 741.152 134.901 747.23 126.68C752.679 119.311 763.959 116.079 774.256 118.938Z" fill="#0D3532"/><path fill-rule="evenodd" clip-rule="evenodd" d="M101.533 1.39191C99.9368 2.22391 92.7368 8.41192 85.5328 15.1429C69.2278 30.3759 59.9198 38.7439 28.6418 66.2849C11.6768 81.2229 3.21084 89.3649 1.82984 92.0719C-0.125156 95.9039 -0.177152 97.4999 0.155848 143.197C0.477848 187.317 0.627845 190.683 2.46784 195.267C4.79684 201.07 10.8568 207.631 16.4348 210.389C20.3138 212.306 22.7408 212.366 96.9348 212.366H173.435L178.293 209.974C184.771 206.786 189.637 201.742 192.788 194.952L195.38 189.366L195.435 100.93L193.18 98.6709C190.37 95.8549 184.004 95.5879 181.156 98.1659C179.309 99.8379 179.193 101.984 178.725 143.341C178.182 191.299 178.373 189.935 171.676 193.595C168.659 195.243 163.432 195.366 96.2038 195.366H23.9728L17.9128 189.305L17.7479 98.3659L38.5909 80.0389C67.6849 54.4579 84.8108 38.9659 96.2068 27.9199L105.979 18.4489L115.707 27.9069C121.057 33.1099 128.899 40.8539 133.132 45.1159C139.89 51.9209 141.267 52.8659 144.427 52.8659C149.266 52.8659 152.935 49.2419 152.935 44.4619C152.935 41.2629 151.596 39.6659 137.185 25.6659C128.523 17.2509 119.597 8.47091 117.349 6.1539C111.309 -0.0740952 106.893 -1.40309 101.533 1.39191ZM274.047 57.9139C270.353 58.4119 264.556 60.2489 260.3 62.2699C243.93 70.0439 235.302 84.9949 237.894 101.095C240.397 116.634 254.27 128.175 277.941 134.409C297.829 139.646 304.224 144.356 304.364 153.869C304.453 159.958 302.037 163.511 295.615 166.731C290.239 169.426 279.548 169.995 272.227 167.973C266.542 166.404 259.943 161.192 257.074 156.005C255.559 153.264 254.214 151.929 253.318 152.273C250.251 153.449 232.935 164.031 232.935 164.729C232.935 165.139 234.257 167.559 235.873 170.107C239.971 176.57 248.979 183.323 258.435 187.022C265.488 189.781 267.943 190.209 279.176 190.641C293.29 191.184 297.708 190.399 307.269 185.65C319.157 179.746 325.932 170.75 328.126 157.958C329.202 151.684 329.141 149.88 327.665 144.251C323.574 128.656 311.038 118.452 288.515 112.383C268.045 106.868 263.114 103.737 262.232 95.6919C261.258 86.7959 269.86 79.8579 281.842 79.8759C292.948 79.8919 301.844 85.4419 305.071 94.3659C305.767 96.2909 306.668 97.8659 307.073 97.8659C308.873 97.8659 326.935 86.2389 326.935 85.0799C326.935 80.2319 316.753 68.7369 307.935 63.6299C299.167 58.5509 285.905 56.3149 274.047 57.9139ZM346.821 58.8649C340.715 62.0909 338.169 70.5499 341.415 76.8269C344.05 81.9229 347.548 83.8659 354.085 83.8659C359.347 83.8659 360.344 83.5179 363.578 80.5539C366.592 77.7919 367.264 76.4209 367.625 72.3039C368.658 60.5169 357.425 53.2599 346.821 58.8649ZM640.178 57.6789C639.185 58.3219 638.974 72.2489 639.178 123.93L639.435 189.366H662.435L662.692 124.477C662.866 80.6889 662.612 59.1809 661.911 58.3369C660.72 56.9019 642.241 56.3429 640.178 57.6789ZM687.205 58.3489C682.732 60.2929 679.943 65.2379 679.939 71.2339C679.935 75.5569 680.369 76.5349 683.817 79.9839C687.334 83.5009 688.19 83.8659 692.913 83.8659C701.767 83.8659 707.268 78.6739 707.268 70.3179C707.268 60.4049 696.816 54.1699 687.205 58.3489ZM422.935 97.2529C415.54 98.8929 411.826 101.007 407.535 106.02L403.935 110.226V98.8659H382.935V189.929L406.435 189.366L406.935 158.866C407.378 131.847 407.643 127.985 409.256 125.028C411.817 120.335 418.505 117.5 425.623 118.09C432.048 118.623 435.663 120.977 438.435 126.431C440.262 130.025 440.478 132.924 440.935 159.866L441.435 189.366L464.935 189.929L464.959 162.648C464.972 147.643 465.392 133.601 465.892 131.443C467.003 126.655 469.523 123.118 474.027 120.027C476.84 118.097 478.406 117.757 483 118.078C490.016 118.568 494.439 121.565 497.311 127.774C499.294 132.061 499.455 134.275 499.742 161.147L500.048 189.928L523.435 189.366L523.4 156.366C523.367 124.533 523.286 123.166 521.117 117.719C515.175 102.797 500.024 94.3519 483.864 96.9549C475.915 98.2349 472.801 99.8989 465.735 106.638L459.978 112.13L455.319 106.948C450.041 101.078 445.784 98.6099 438.136 96.9889C431.773 95.6409 430.074 95.6699 422.935 97.2529ZM758.886 96.9169C734.899 100.491 717.99 119.899 717.947 143.906C717.933 151.788 720.073 160.511 723.62 167.029C727.364 173.908 737.596 183.346 745.123 186.862C767.483 197.308 796.883 188.497 807.718 168.103C817.595 149.515 815.451 127.192 802.328 111.978C792.594 100.694 774.843 94.5389 758.886 96.9169ZM341.935 189.929L365.435 189.366V143.866V98.3659L341.935 97.8029V143.866V189.929ZM682.405 99.0829C682.135 99.7889 682.031 120.391 682.174 144.866L682.435 189.366H705.435V98.3659L694.166 98.0829C685.709 97.8709 682.775 98.1199 682.405 99.0829ZM538.935 130.182C538.935 163.677 539.625 170.84 543.493 177.511C549.609 188.058 563.33 193.279 578.548 190.848C586.816 189.527 591.545 187.147 596.251 181.938C598.274 179.699 600.134 177.866 600.382 177.866C600.631 177.866 600.97 180.453 601.135 183.616L601.435 189.366L624.172 189.934L623.48 186.65C623.099 184.844 622.551 164.353 622.263 141.116L621.737 98.8659H598.067L597.751 129.295C597.449 158.341 597.34 159.852 595.343 162.545C594.192 164.096 591.717 166.416 589.843 167.7C586.856 169.746 585.484 169.992 578.746 169.695C571.929 169.395 570.726 169.04 568.139 166.562C563.381 162.003 562.935 158.658 562.935 127.5V98.8659H538.935V130.182ZM774.256 118.938C779.012 120.259 785.408 125.933 788.188 131.298C789.823 134.454 790.311 137.271 790.365 143.866C790.429 151.595 790.153 152.865 787.329 157.866C783.111 165.335 777.029 169.138 768.428 169.686C757.749 170.366 750.237 166.651 745.318 158.257C740.261 149.627 741.152 134.901 747.23 126.68C752.679 119.311 763.959 116.079 774.256 118.938Z" fill="#0D3532"/><path fill-rule="evenodd" clip-rule="evenodd" d="M101.533 1.39191C99.9368 2.22391 92.7368 8.41192 85.5328 15.1429C69.2278 30.3759 59.9198 38.7439 28.6418 66.2849C11.6768 81.2229 3.21084 89.3649 1.82984 92.0719C-0.125156 95.9039 -0.177152 97.4999 0.155848 143.197C0.477848 187.317 0.627845 190.683 2.46784 195.267C4.79684 201.07 10.8568 207.631 16.4348 210.389C20.3138 212.306 22.7408 212.366 96.9348 212.366H173.435L178.293 209.974C184.771 206.786 189.637 201.742 192.788 194.952L195.38 189.366L195.435 100.93L193.18 98.6709C190.37 95.8549 184.004 95.5879 181.156 98.1659C179.309 99.8379 179.193 101.984 178.725 143.341C178.182 191.299 178.373 189.935 171.676 193.595C168.659 195.243 163.432 195.366 96.2038 195.366H23.9728L17.9128 189.305L17.7479 98.3659L38.5909 80.0389C67.6849 54.4579 84.8108 38.9659 96.2068 27.9199L105.979 18.4489L115.707 27.9069C121.057 33.1099 128.899 40.8539 133.132 45.1159C139.89 51.9209 141.267 52.8659 144.427 52.8659C149.266 52.8659 152.935 49.2419 152.935 44.4619C152.935 41.2629 151.596 39.6659 137.185 25.6659C128.523 17.2509 119.597 8.47091 117.349 6.1539C111.309 -0.0740952 106.893 -1.40309 101.533 1.39191ZM274.047 57.9139C270.353 58.4119 264.556 60.2489 260.3 62.2699C243.93 70.0439 235.302 84.9949 237.894 101.095C240.397 116.634 254.27 128.175 277.941 134.409C297.829 139.646 304.224 144.356 304.364 153.869C304.453 159.958 302.037 163.511 295.615 166.731C290.239 169.426 279.548 169.995 272.227 167.973C266.542 166.404 259.943 161.192 257.074 156.005C255.559 153.264 254.214 151.929 253.318 152.273C250.251 153.449 232.935 164.031 232.935 164.729C232.935 165.139 234.257 167.559 235.873 170.107C239.971 176.57 248.979 183.323 258.435 187.022C265.488 189.781 267.943 190.209 279.176 190.641C293.29 191.184 297.708 190.399 307.269 185.65C319.157 179.746 325.932 170.75 328.126 157.958C329.202 151.684 329.141 149.88 327.665 144.251C323.574 128.656 311.038 118.452 288.515 112.383C268.045 106.868 263.114 103.737 262.232 95.6919C261.258 86.7959 269.86 79.8579 281.842 79.8759C292.948 79.8919 301.844 85.4419 305.071 94.3659C305.767 96.2909 306.668 97.8659 307.073 97.8659C308.873 97.8659 326.935 86.2389 326.935 85.0799C326.935 80.2319 316.753 68.7369 307.935 63.6299C299.167 58.5509 285.905 56.3149 274.047 57.9139ZM346.821 58.8649C340.715 62.0909 338.169 70.5499 341.415 76.8269C344.05 81.9229 347.548 83.8659 354.085 83.8659C359.347 83.8659 360.344 83.5179 363.578 80.5539C366.592 77.7919 367.264 76.4209 367.625 72.3039C368.658 60.5169 357.425 53.2599 346.821 58.8649ZM640.178 57.6789C639.185 58.3219 638.974 72.2489 639.178 123.93L639.435 189.366H662.435L662.692 124.477C662.866 80.6889 662.612 59.1809 661.911 58.3369C660.72 56.9019 642.241 56.3429 640.178 57.6789ZM687.205 58.3489C682.732 60.2929 679.943 65.2379 679.939 71.2339C679.935 75.5569 680.369 76.5349 683.817 79.9839C687.334 83.5009 688.19 83.8659 692.913 83.8659C701.767 83.8659 707.268 78.6739 707.268 70.3179C707.268 60.4049 696.816 54.1699 687.205 58.3489ZM422.935 97.2529C415.54 98.8929 411.826 101.007 407.535 106.02L403.935 110.226V98.8659H382.935V189.929L406.435 189.366L406.935 158.866C407.378 131.847 407.643 127.985 409.256 125.028C411.817 120.335 418.505 117.5 425.623 118.09C432.048 118.623 435.663 120.977 438.435 126.431C440.262 130.025 440.478 132.924 440.935 159.866L441.435 189.366L464.935 189.929L464.959 162.648C464.972 147.643 465.392 133.601 465.892 131.443C467.003 126.655 469.523 123.118 474.027 120.027C476.84 118.097 478.406 117.757 483 118.078C490.016 118.568 494.439 121.565 497.311 127.774C499.294 132.061 499.455 134.275 499.742 161.147L500.048 189.928L523.435 189.366L523.4 156.366C523.367 124.533 523.286 123.166 521.117 117.719C515.175 102.797 500.024 94.3519 483.864 96.9549C475.915 98.2349 472.801 99.8989 465.735 106.638L459.978 112.13L455.319 106.948C450.041 101.078 445.784 98.6099 438.136 96.9889C431.773 95.6409 430.074 95.6699 422.935 97.2529ZM758.886 96.9169C734.899 100.491 717.99 119.899 717.947 143.906C717.933 151.788 720.073 160.511 723.62 167.029C727.364 173.908 737.596 183.346 745.123 186.862C767.483 197.308 796.883 188.497 807.718 168.103C817.595 149.515 815.451 127.192 802.328 111.978C792.594 100.694 774.843 94.5389 758.886 96.9169ZM341.935 189.929L365.435 189.366V143.866V98.3659L341.935 97.8029V143.866V189.929ZM682.405 99.0829C682.135 99.7889 682.031 120.391 682.174 144.866L682.435 189.366H705.435V98.3659L694.166 98.0829C685.709 97.8709 682.775 98.1199 682.405 99.0829ZM538.935 130.182C538.935 163.677 539.625 170.84 543.493 177.511C549.609 188.058 563.33 193.279 578.548 190.848C586.816 189.527 591.545 187.147 596.251 181.938C598.274 179.699 600.134 177.866 600.382 177.866C600.631 177.866 600.97 180.453 601.135 183.616L601.435 189.366L624.172 189.934L623.48 186.65C623.099 184.844 622.551 164.353 622.263 141.116L621.737 98.8659H598.067L597.751 129.295C597.449 158.341 597.34 159.852 595.343 162.545C594.192 164.096 591.717 166.416 589.843 167.7C586.856 169.746 585.484 169.992 578.746 169.695C571.929 169.395 570.726 169.04 568.139 166.562C563.381 162.003 562.935 158.658 562.935 127.5V98.8659H538.935V130.182ZM774.256 118.938C779.012 120.259 785.408 125.933 788.188 131.298C789.823 134.454 790.311 137.271 790.365 143.866C790.429 151.595 790.153 152.865 787.329 157.866C783.111 165.335 777.029 169.138 768.428 169.686C757.749 170.366 750.237 166.651 745.318 158.257C740.261 149.627 741.152 134.901 747.23 126.68C752.679 119.311 763.959 116.079 774.256 118.938Z" fill="#0D3532"/><path fill-rule="evenodd" clip-rule="evenodd" d="M101.533 1.39191C99.9368 2.22391 92.7368 8.41192 85.5328 15.1429C69.2278 30.3759 59.9198 38.7439 28.6418 66.2849C11.6768 81.2229 3.21084 89.3649 1.82984 92.0719C-0.125156 95.9039 -0.177152 97.4999 0.155848 143.197C0.477848 187.317 0.627845 190.683 2.46784 195.267C4.79684 201.07 10.8568 207.631 16.4348 210.389C20.3138 212.306 22.7408 212.366 96.9348 212.366H173.435L178.293 209.974C184.771 206.786 189.637 201.742 192.788 194.952L195.38 189.366L195.435 100.93L193.18 98.6709C190.37 95.8549 184.004 95.5879 181.156 98.1659C179.309 99.8379 179.193 101.984 178.725 143.341C178.182 191.299 178.373 189.935 171.676 193.595C168.659 195.243 163.432 195.366 96.2038 195.366H23.9728L17.9128 189.305L17.7479 98.3659L38.5909 80.0389C67.6849 54.4579 84.8108 38.9659 96.2068 27.9199L105.979 18.4489L115.707 27.9069C121.057 33.1099 128.899 40.8539 133.132 45.1159C139.89 51.9209 141.267 52.8659 144.427 52.8659C149.266 52.8659 152.935 49.2419 152.935 44.4619C152.935 41.2629 151.596 39.6659 137.185 25.6659C128.523 17.2509 119.597 8.47091 117.349 6.1539C111.309 -0.0740952 106.893 -1.40309 101.533 1.39191ZM274.047 57.9139C270.353 58.4119 264.556 60.2489 260.3 62.2699C243.93 70.0439 235.302 84.9949 237.894 101.095C240.397 116.634 254.27 128.175 277.941 134.409C297.829 139.646 304.224 144.356 304.364 153.869C304.453 159.958 302.037 163.511 295.615 166.731C290.239 169.426 279.548 169.995 272.227 167.973C266.542 166.404 259.943 161.192 257.074 156.005C255.559 153.264 254.214 151.929 253.318 152.273C250.251 153.449 232.935 164.031 232.935 164.729C232.935 165.139 234.257 167.559 235.873 170.107C239.971 176.57 248.979 183.323 258.435 187.022C265.488 189.781 267.943 190.209 279.176 190.641C293.29 191.184 297.708 190.399 307.269 185.65C319.157 179.746 325.932 170.75 328.126 157.958C329.202 151.684 329.141 149.88 327.665 144.251C323.574 128.656 311.038 118.452 288.515 112.383C268.045 106.868 263.114 103.737 262.232 95.6919C261.258 86.7959 269.86 79.8579 281.842 79.8759C292.948 79.8919 301.844 85.4419 305.071 94.3659C305.767 96.2909 306.668 97.8659 307.073 97.8659C308.873 97.8659 326.935 86.2389 326.935 85.0799C326.935 80.2319 316.753 68.7369 307.935 63.6299C299.167 58.5509 285.905 56.3149 274.047 57.9139ZM346.821 58.8649C340.715 62.0909 338.169 70.5499 341.415 76.8269C344.05 81.9229 347.548 83.8659 354.085 83.8659C359.347 83.8659 360.344 83.5179 363.578 80.5539C366.592 77.7919 367.264 76.4209 367.625 72.3039C368.658 60.5169 357.425 53.2599 346.821 58.8649ZM640.178 57.6789C639.185 58.3219 638.974 72.2489 639.178 123.93L639.435 189.366H662.435L662.692 124.477C662.866 80.6889 662.612 59.1809 661.911 58.3369C660.72 56.9019 642.241 56.3429 640.178 57.6789ZM687.205 58.3489C682.732 60.2929 679.943 65.2379 679.939 71.2339C679.935 75.5569 680.369 76.5349 683.817 79.9839C687.334 83.5009 688.19 83.8659 692.913 83.8659C701.767 83.8659 707.268 78.6739 707.268 70.3179C707.268 60.4049 696.816 54.1699 687.205 58.3489ZM422.935 97.2529C415.54 98.8929 411.826 101.007 407.535 106.02L403.935 110.226V98.8659H382.935V189.929L406.435 189.366L406.935 158.866C407.378 131.847 407.643 127.985 409.256 125.028C411.817 120.335 418.505 117.5 425.623 118.09C432.048 118.623 435.663 120.977 438.435 126.431C440.262 130.025 440.478 132.924 440.935 159.866L441.435 189.366L464.935 189.929L464.959 162.648C464.972 147.643 465.392 133.601 465.892 131.443C467.003 126.655 469.523 123.118 474.027 120.027C476.84 118.097 478.406 117.757 483 118.078C490.016 118.568 494.439 121.565 497.311 127.774C499.294 132.061 499.455 134.275 499.742 161.147L500.048 189.928L523.435 189.366L523.4 156.366C523.367 124.533 523.286 123.166 521.117 117.719C515.175 102.797 500.024 94.3519 483.864 96.9549C475.915 98.2349 472.801 99.8989 465.735 106.638L459.978 112.13L455.319 106.948C450.041 101.078 445.784 98.6099 438.136 96.9889C431.773 95.6409 430.074 95.6699 422.935 97.2529ZM758.886 96.9169C734.899 100.491 717.99 119.899 717.947 143.906C717.933 151.788 720.073 160.511 723.62 167.029C727.364 173.908 737.596 183.346 745.123 186.862C767.483 197.308 796.883 188.497 807.718 168.103C817.595 149.515 815.451 127.192 802.328 111.978C792.594 100.694 774.843 94.5389 758.886 96.9169ZM341.935 189.929L365.435 189.366V143.866V98.3659L341.935 97.8029V143.866V189.929ZM682.405 99.0829C682.135 99.7889 682.031 120.391 682.174 144.866L682.435 189.366H705.435V98.3659L694.166 98.0829C685.709 97.8709 682.775 98.1199 682.405 99.0829ZM538.935 130.182C538.935 163.677 539.625 170.84 543.493 177.511C549.609 188.058 563.33 193.279 578.548 190.848C586.816 189.527 591.545 187.147 596.251 181.938C598.274 179.699 600.134 177.866 600.382 177.866C600.631 177.866 600.97 180.453 601.135 183.616L601.435 189.366L624.172 189.934L623.48 186.65C623.099 184.844 622.551 164.353 622.263 141.116L621.737 98.8659H598.067L597.751 129.295C597.449 158.341 597.34 159.852 595.343 162.545C594.192 164.096 591.717 166.416 589.843 167.7C586.856 169.746 585.484 169.992 578.746 169.695C571.929 169.395 570.726 169.04 568.139 166.562C563.381 162.003 562.935 158.658 562.935 127.5V98.8659H538.935V130.182ZM774.256 118.938C779.012 120.259 785.408 125.933 788.188 131.298C789.823 134.454 790.311 137.271 790.365 143.866C790.429 151.595 790.153 152.865 787.329 157.866C783.111 165.335 777.029 169.138 768.428 169.686C757.749 170.366 750.237 166.651 745.318 158.257C740.261 149.627 741.152 134.901 747.23 126.68C752.679 119.311 763.959 116.079 774.256 118.938Z" fill="#0D3532"/><path fill-rule="evenodd" clip-rule="evenodd" d="M101.533 1.39191C99.9368 2.22391 92.7368 8.41192 85.5328 15.1429C69.2278 30.3759 59.9198 38.7439 28.6418 66.2849C11.6768 81.2229 3.21084 89.3649 1.82984 92.0719C-0.125156 95.9039 -0.177152 97.4999 0.155848 143.197C0.477848 187.317 0.627845 190.683 2.46784 195.267C4.79684 201.07 10.8568 207.631 16.4348 210.389C20.3138 212.306 22.7408 212.366 96.9348 212.366H173.435L178.293 209.974C184.771 206.786 189.637 201.742 192.788 194.952L195.38 189.366L195.435 100.93L193.18 98.6709C190.37 95.8549 184.004 95.5879 181.156 98.1659C179.309 99.8379 179.193 101.984 178.725 143.341C178.182 191.299 178.373 189.935 171.676 193.595C168.659 195.243 163.432 195.366 96.2038 195.366H23.9728L17.9128 189.305L17.7479 98.3659L38.5909 80.0389C67.6849 54.4579 84.8108 38.9659 96.2068 27.9199L105.979 18.4489L115.707 27.9069C121.057 33.1099 128.899 40.8539 133.132 45.1159C139.89 51.9209 141.267 52.8659 144.427 52.8659C149.266 52.8659 152.935 49.2419 152.935 44.4619C152.935 41.2629 151.596 39.6659 137.185 25.6659C128.523 17.2509 119.597 8.47091 117.349 6.1539C111.309 -0.0740952 106.893 -1.40309 101.533 1.39191ZM274.047 57.9139C270.353 58.4119 264.556 60.2489 260.3 62.2699C243.93 70.0439 235.302 84.9949 237.894 101.095C240.397 116.634 254.27 128.175 277.941 134.409C297.829 139.646 304.224 144.356 304.364 153.869C304.453 159.958 302.037 163.511 295.615 166.731C290.239 169.426 279.548 169.995 272.227 167.973C266.542 166.404 259.943 161.192 257.074 156.005C255.559 153.264 254.214 151.929 253.318 152.273C250.251 153.449 232.935 164.031 232.935 164.729C232.935 165.139 234.257 167.559 235.873 170.107C239.971 176.57 248.979 183.323 258.435 187.022C265.488 189.781 267.943 190.209 279.176 190.641C293.29 191.184 297.708 190.399 307.269 185.65C319.157 179.746 325.932 170.75 328.126 157.958C329.202 151.684 329.141 149.88 327.665 144.251C323.574 128.656 311.038 118.452 288.515 112.383C268.045 106.868 263.114 103.737 262.232 95.6919C261.258 86.7959 269.86 79.8579 281.842 79.8759C292.948 79.8919 301.844 85.4419 305.071 94.3659C305.767 96.2909 306.668 97.8659 307.073 97.8659C308.873 97.8659 326.935 86.2389 326.935 85.0799C326.935 80.2319 316.753 68.7369 307.935 63.6299C299.167 58.5509 285.905 56.3149 274.047 57.9139ZM346.821 58.8649C340.715 62.0909 338.169 70.5499 341.415 76.8269C344.05 81.9229 347.548 83.8659 354.085 83.8659C359.347 83.8659 360.344 83.5179 363.578 80.5539C366.592 77.7919 367.264 76.4209 367.625 72.3039C368.658 60.5169 357.425 53.2599 346.821 58.8649ZM640.178 57.6789C639.185 58.3219 638.974 72.2489 639.178 123.93L639.435 189.366H662.435L662.692 124.477C662.866 80.6889 662.612 59.1809 661.911 58.3369C660.72 56.9019 642.241 56.3429 640.178 57.6789ZM687.205 58.3489C682.732 60.2929 679.943 65.2379 679.939 71.2339C679.935 75.5569 680.369 76.5349 683.817 79.9839C687.334 83.5009 688.19 83.8659 692.913 83.8659C701.767 83.8659 707.268 78.6739 707.268 70.3179C707.268 60.4049 696.816 54.1699 687.205 58.3489ZM422.935 97.2529C415.54 98.8929 411.826 101.007 407.535 106.02L403.935 110.226V98.8659H382.935V189.929L406.435 189.366L406.935 158.866C407.378 131.847 407.643 127.985 409.256 125.028C411.817 120.335 418.505 117.5 425.623 118.09C432.048 118.623 435.663 120.977 438.435 126.431C440.262 130.025 440.478 132.924 440.935 159.866L441.435 189.366L464.935 189.929L464.959 162.648C464.972 147.643 465.392 133.601 465.892 131.443C467.003 126.655 469.523 123.118 474.027 120.027C476.84 118.097 478.406 117.757 483 118.078C490.016 118.568 494.439 121.565 497.311 127.774C499.294 132.061 499.455 134.275 499.742 161.147L500.048 189.928L523.435 189.366L523.4 156.366C523.367 124.533 523.286 123.166 521.117 117.719C515.175 102.797 500.024 94.3519 483.864 96.9549C475.915 98.2349 472.801 99.8989 465.735 106.638L459.978 112.13L455.319 106.948C450.041 101.078 445.784 98.6099 438.136 96.9889C431.773 95.6409 430.074 95.6699 422.935 97.2529ZM758.886 96.9169C734.899 100.491 717.99 119.899 717.947 143.906C717.933 151.788 720.073 160.511 723.62 167.029C727.364 173.908 737.596 183.346 745.123 186.862C767.483 197.308 796.883 188.497 807.718 168.103C817.595 149.515 815.451 127.192 802.328 111.978C792.594 100.694 774.843 94.5389 758.886 96.9169ZM341.935 189.929L365.435 189.366V143.866V98.3659L341.935 97.8029V143.866V189.929ZM682.405 99.0829C682.135 99.7889 682.031 120.391 682.174 144.866L682.435 189.366H705.435V98.3659L694.166 98.0829C685.709 97.8709 682.775 98.1199 682.405 99.0829ZM538.935 130.182C538.935 163.677 539.625 170.84 543.493 177.511C549.609 188.058 563.33 193.279 578.548 190.848C586.816 189.527 591.545 187.147 596.251 181.938C598.274 179.699 600.134 177.866 600.382 177.866C600.631 177.866 600.97 180.453 601.135 183.616L601.435 189.366L624.172 189.934L623.48 186.65C623.099 184.844 622.551 164.353 622.263 141.116L621.737 98.8659H598.067L597.751 129.295C597.449 158.341 597.34 159.852 595.343 162.545C594.192 164.096 591.717 166.416 589.843 167.7C586.856 169.746 585.484 169.992 578.746 169.695C571.929 169.395 570.726 169.04 568.139 166.562C563.381 162.003 562.935 158.658 562.935 127.5V98.8659H538.935V130.182ZM774.256 118.938C779.012 120.259 785.408 125.933 788.188 131.298C789.823 134.454 790.311 137.271 790.365 143.866C790.429 151.595 790.153 152.865 787.329 157.866C783.111 165.335 777.029 169.138 768.428 169.686C757.749 170.366 750.237 166.651 745.318 158.257C740.261 149.627 741.152 134.901 747.23 126.68C752.679 119.311 763.959 116.079 774.256 118.938Z" fill="#0D3532"/><path d="M149.335 68.8245C174.494 41.8815 189.089 27.5705 191.859 27.1285C197.613 26.2105 201.743 30.2625 202.574 37.6415C203.286 43.9535 200.844 48.5515 187.979 65.1205C182.126 72.6575 164.555 95.9245 148.932 116.825C111.013 167.548 102.999 175.486 92.7887 172.426C90.7007 171.801 85.0217 168.179 80.1677 164.377C69.3417 155.899 44.7907 132.104 41.9377 127.325C37.6297 120.106 40.1157 111.009 47.7157 106.189C59.0487 99.0025 70.7457 105.1 84.0807 125.148L87.6207 130.471L94.4817 124.493C102.847 117.204 127.916 91.7625 149.335 68.8245Z" fill="#39785B"/></svg>
